<svg width="24" height="24" viewBox="0 0 24 24" fill="none" xmlns="http://www.w3.org/2000/svg">
<path d="M6.5625 10.4109C5.48906 10.4109 4.61719 11.2828 4.61719 12.3562C4.61719 13.4297 5.48906 14.3016 6.5625 14.3016C7.63594 14.3016 8.50781 13.4297 8.50781 12.3562C8.50781 11.2828 7.63594 10.4109 6.5625 10.4109ZM3.41719 18.3047H4.54219V16.8422H5.19844V18.3047H9.70781V16.0078C9.47344 15.7406 9.18281 15.5203 8.85938 15.3656C8.51719 15.2016 8.13281 15.1125 7.725 15.1125H5.40469C4.99688 15.1125 4.6125 15.2062 4.27031 15.3656C3.94687 15.5203 3.66094 15.7406 3.42188 16.0078V18.3047H3.41719ZM11.4375 20.7234V18.9656H2.60156V20.7234H11.4375ZM20.8078 18.9609V20.7187H21.3984V18.9609H20.8078ZM16.1203 10.2234C14.7234 10.2234 13.5938 11.3531 13.5938 12.75C13.5938 14.1469 14.7234 15.2766 16.1203 15.2766C17.5172 15.2766 18.6469 14.1469 18.6469 12.75C18.6469 11.3531 17.5172 10.2234 16.1203 10.2234ZM13.6688 18.7875V18.4594H14.325V22.2187H20.1469V17.2922C19.8422 16.9406 19.4625 16.65 19.0359 16.4437C18.5953 16.2328 18.0984 16.1156 17.5734 16.1156H14.6625C14.1375 16.1156 13.6453 16.2328 13.2 16.4437C12.7734 16.6453 12.3984 16.9359 12.0891 17.2922V22.2187H13.6641V18.7875H13.6688ZM18.0563 5.07655C18.0141 4.19062 17.6297 3.31874 16.9219 2.67655L16.9078 2.66718C16.2 2.03437 15.3047 1.74374 14.4188 1.78593C13.5328 1.82812 12.6609 2.21249 12.0187 2.9203L12.0094 2.93437C11.4 3.61405 11.0859 4.51874 11.1281 5.42343C11.1562 5.98593 11.3063 6.47812 11.5828 6.97968C11.7234 7.2328 12.0375 7.64531 12.2766 7.83281C12.7078 8.21718 13.2281 8.48905 13.7812 8.62031L13.9828 8.66718L14.2828 9.60468L14.7375 8.71874C15.2719 8.66718 15.6516 8.59687 16.1531 8.34374C16.5234 8.15624 16.8703 7.89843 17.1609 7.57499C17.8078 6.86718 18.1031 5.96249 18.0563 5.07655ZM10.8375 7.14374C10.2469 5.97187 10.2375 4.57968 10.8188 3.39843C9.9375 2.03437 8.2125 1.46718 6.68906 2.03905C4.89844 2.71405 3.98906 4.71562 4.66406 6.50624C5.20312 7.94999 6.63281 8.85937 8.16562 8.74687L8.37188 8.73281L8.94375 9.52968L9.10781 8.54999C9.55781 8.3578 9.8625 8.20312 10.2422 7.85624C10.4672 7.64999 10.6687 7.41093 10.8375 7.14374ZM6.26719 4.31718H5.89688V3.58124H9.15V4.31718H6.26719ZM5.87344 5.81249H5.50313V5.07655H8.4375V5.81249H5.87344ZM6.39844 7.30312H6.02813V6.56718H8.9625V7.30312H6.39844ZM13.1531 4.01718H12.7828V3.28124H16.4016V4.01718H13.1531ZM12.9094 5.5078H12.5391V4.77187H16.6406V5.5078H12.9094ZM13.1156 6.99843H12.75V6.26249H16.4391V6.99843H13.1156Z" fill="black"/>
</svg>
