<svg width="24" height="24" viewBox="0 0 24 24" fill="none" xmlns="http://www.w3.org/2000/svg">
<path d="M5.02474 18.8693C5.64437 18.8693 6.1486 19.3735 6.1486 19.9933C6.1486 20.1772 6.29785 20.3267 6.48193 20.3267H17.515C17.6991 20.3267 17.8483 20.1772 17.8483 19.9933C17.8483 19.3735 18.3525 18.8693 18.9722 18.8693C19.1562 18.8693 19.3055 18.7201 19.3055 18.536V16.3078C19.3055 16.1237 19.1562 15.9744 18.9722 15.9744C18.3525 15.9744 17.8483 15.4702 17.8483 14.8504C17.8483 14.6665 17.6991 14.5171 17.515 14.5171H6.48193C6.29785 14.5171 6.1486 14.6665 6.1486 14.8504C6.1486 15.4702 5.64437 15.9744 5.02474 15.9744C4.84066 15.9744 4.69141 16.1237 4.69141 16.3078V18.536C4.69141 18.7201 4.84066 18.8693 5.02474 18.8693Z" fill="black"/>
<path d="M22.012 13.4622C22.3722 13.4622 22.6654 13.1691 22.6654 12.8091V11.7015C22.6654 11.3807 22.4326 11.1147 22.1274 11.0599V9.60612C22.1274 8.37614 21.1274 7.37614 19.8975 7.37614H19.5208C19.5135 7.37614 19.5043 7.37809 19.496 7.37907C20.0867 7.07845 20.5229 6.51758 20.6516 5.84701C20.9545 5.70231 21.1645 5.39437 21.1645 5.03597C21.1645 4.76497 21.0419 4.52344 20.8516 4.35824V3.29264C20.8516 2.36735 19.6763 1.95166 18.5134 1.95166C17.3475 1.95166 16.1722 2.36735 16.1722 3.29264V4.36019C16.1562 4.37402 16.1392 4.38591 16.124 4.40088C15.9532 4.56901 15.8592 4.79671 15.8592 5.03597C15.8592 5.39437 16.0692 5.70215 16.372 5.84701C16.5003 6.5153 16.9342 7.07487 17.5227 7.37614H17.1574C16.3577 7.37614 15.6564 7.80257 15.2637 8.43929C14.8704 7.8029 14.1686 7.37663 13.3672 7.37663H12.9919C12.9827 7.37663 12.974 7.37891 12.9649 7.37939C13.556 7.07894 13.9927 6.5179 14.1215 5.84701C14.4244 5.70231 14.6344 5.39437 14.6344 5.03597C14.6344 4.76497 14.5117 4.52344 14.3215 4.35824V3.29264C14.3215 2.36735 13.1461 1.95166 11.9832 1.95166C10.8173 1.95166 9.64201 2.36735 9.64201 3.29264V4.36019C9.62614 4.37402 9.60897 4.38591 9.59391 4.40088C9.42301 4.56901 9.32902 4.79671 9.32902 5.03597C9.32902 5.39437 9.53898 5.70231 9.84188 5.84701C9.9703 6.51579 10.4046 7.07536 10.9935 7.37663H10.6283C9.75301 7.37663 8.99626 7.88525 8.63216 8.62126C8.22591 8.0695 7.57389 7.70947 6.8374 7.70947H6.46077C6.45182 7.70947 6.44369 7.71143 6.43555 7.7124C7.02629 7.41195 7.46265 6.85091 7.59139 6.18034C7.89421 6.03564 8.10417 5.7277 8.10417 5.3693C8.10417 5.09831 7.98161 4.85677 7.79126 4.69173V3.62598C7.79126 2.70068 6.61597 2.28499 5.45312 2.28499C4.28719 2.28499 3.11182 2.70068 3.11182 3.62598V4.69352C3.09603 4.70736 3.07878 4.71924 3.0638 4.73421C2.8929 4.90234 2.79891 5.13005 2.79891 5.3693C2.79891 5.7277 3.00887 6.03564 3.31177 6.18034C3.4401 6.84863 3.87402 7.4082 4.4624 7.70947H4.09741C2.87077 7.70947 1.87077 8.70947 1.87077 9.93945V11.0597C1.56519 11.1143 1.33203 11.3805 1.33203 11.7015V12.8091C1.33203 13.1691 1.62516 13.4622 1.98535 13.4622H2.47673V21.3815H1.66536C1.48128 21.3815 1.33203 21.5308 1.33203 21.7148C1.33203 21.8989 1.48128 22.0482 1.66536 22.0482C10.0958 22.0482 13.4381 22.0482 22.332 22.0482C22.5161 22.0482 22.6654 21.8989 22.6654 21.7148C22.6654 21.5308 22.5161 21.3815 22.332 21.3815H21.5208V13.4622H22.012ZM16.9984 5.43473V3.96175L17.4756 3.57145C17.6382 3.77148 17.9039 4.01839 18.3009 4.16536C18.673 4.30404 19.4316 4.40609 20.0252 4.46908V5.43473C20.0252 6.27002 19.347 6.94954 18.5104 6.94954C17.6766 6.94954 16.9984 6.27002 16.9984 5.43473ZM19.0041 8.11947L18.5141 8.646L18.0208 8.11947C18.1096 8.01742 18.1947 7.85921 18.2064 7.59212C18.307 7.60628 18.4089 7.61621 18.5133 7.61621C18.616 7.61621 18.7164 7.60661 18.8153 7.59277C18.8304 7.86247 18.9153 8.01742 19.0041 8.11947ZM10.4683 5.43473V3.96159L10.9455 3.57145C11.1081 3.77148 11.3737 4.01839 11.7707 4.16536C12.1429 4.30404 12.9014 4.40609 13.4951 4.46908V5.43473C13.4951 6.27002 12.8169 6.94954 11.9803 6.94954C11.1465 6.94954 10.4683 6.27002 10.4683 5.43473ZM12.4741 8.11947L11.984 8.646L11.4907 8.11947C11.5796 8.01742 11.6646 7.85921 11.6764 7.59212C11.7769 7.60628 11.8787 7.61621 11.9831 7.61621C12.0859 7.61621 12.1862 7.60661 12.2853 7.59261C12.3004 7.86247 12.3853 8.01742 12.4741 8.11947ZM9.06706 9.60449C9.06706 8.74479 9.76571 8.04541 10.625 8.04362C10.6327 8.10417 10.6576 8.1626 10.7008 8.20947L11.7674 9.3527C11.8241 9.41276 11.9007 9.44938 11.984 9.44938C12.0641 9.44938 12.1408 9.41276 12.1974 9.3527L13.2641 8.20947C13.307 8.16113 13.3312 8.10303 13.3385 8.04329H13.3672C14.2292 8.04329 14.9305 8.74463 14.9305 9.60661V11.0482H9.06738C9.06737 11.0139 9.06714 9.96541 9.06706 9.60449ZM3.93815 5.76807V4.29492L4.41536 3.90479C4.57788 4.10482 4.84359 4.35173 5.24056 4.4987C5.61271 4.63737 6.37134 4.73958 6.96501 4.80241V5.76807C6.96501 6.60335 6.28678 7.28288 5.4502 7.28288C4.61637 7.28288 3.93815 6.60335 3.93815 5.76807ZM5.94409 8.4528L5.4541 8.97933L4.96077 8.4528C5.04964 8.35075 5.1346 8.19255 5.1464 7.92546C5.24683 7.93962 5.34863 7.94954 5.45296 7.94954C5.55583 7.94954 5.65617 7.93994 5.75529 7.92594C5.77035 8.1958 5.85531 8.35075 5.94409 8.4528ZM20.8542 21.3815H3.14339V13.4622H20.8542V21.3815ZM1.9987 12.8091L1.98535 11.7148C1.95165 11.7149 12.1323 11.723 21.9987 11.7015V12.7956C-15.861 12.7956 22.7064 12.7895 1.9987 12.8091Z" fill="black"/>
</svg>
