<svg width="64" height="60" viewBox="0 0 64 60" fill="none" xmlns="http://www.w3.org/2000/svg">
<path d="M31.9992 0.836914C21.5463 0.836914 13.0414 9.34188 13.0414 19.7947C13.0414 30.2475 21.5463 38.7639 31.9992 38.7639C42.452 38.7639 50.957 30.2475 50.957 19.7947C50.957 9.34188 42.452 0.836909 31.9992 0.836914ZM31.9992 5.22034C40.0445 5.22034 46.5878 11.7494 46.5878 19.7947C46.5878 27.84 40.0445 34.3805 31.9992 34.3805C23.9539 34.3805 17.4248 27.84 17.4248 19.7947C17.4248 11.7494 23.9539 5.22034 31.9992 5.22034ZM31.9992 6.67293C24.742 6.67293 18.8774 12.5375 18.8774 19.7947C18.8774 27.0519 24.742 32.9279 31.9992 32.9279C39.2563 32.9279 45.1209 27.0519 45.1209 19.7947C45.1209 12.5375 39.2563 6.67293 31.9992 6.67293ZM32.0021 10.8484L34.4857 16.1775L40.2448 16.9436L36.0409 20.9938L37.089 26.77L32.0021 23.9645L26.9151 26.77L27.9604 20.9938L23.7565 16.9436L29.4985 16.1775L31.347 12.2441L32.0021 10.8484ZM32.0021 14.2692L30.464 17.5247L26.9465 17.9889L29.5298 20.4783L28.8776 24.0158L32.0021 22.2869L35.1095 23.9987L34.4715 20.4783L37.0548 17.9889L33.523 17.5247L32.0021 14.2692ZM19.6635 36.0211C19.0806 37.2674 18.4687 38.5073 17.8207 39.6298C15.0262 44.47 10.5093 49.4248 10.5093 49.4248C10.3074 49.642 10.1765 49.9156 10.1341 50.2091C10.0917 50.5026 10.1398 50.802 10.2719 51.0675C10.404 51.333 10.6139 51.5519 10.8736 51.695C11.1333 51.8381 11.4305 51.8987 11.7255 51.8686L20.5436 51.0084L22.825 58.1546C22.9015 58.3927 23.038 58.6072 23.2212 58.7773C23.4045 58.9475 23.6285 59.0676 23.8716 59.1263C24.1147 59.1849 24.3688 59.18 24.6095 59.1121C24.8502 59.0442 25.0694 58.9156 25.246 58.7385C25.246 58.7385 29.4764 54.5083 32.9761 48.371C35.0753 44.6897 36.2475 41.6002 36.9067 39.5956C35.3304 39.9885 33.6909 40.2222 31.9963 40.2222C27.3619 40.2222 23.0955 38.6431 19.6635 36.0211ZM44.3348 36.0211C42.6158 37.3336 40.6891 38.3792 38.607 39.0972C38.0356 40.9912 36.7478 44.7027 34.2436 49.0944C33.7958 49.8795 33.3346 50.6334 32.8736 51.3531C35.8527 55.8221 38.7466 58.7385 38.7466 58.7385C38.9232 58.9156 39.1424 59.0442 39.3831 59.1121C39.6238 59.18 39.8779 59.1849 40.121 59.1263C40.3641 59.0676 40.5881 58.9475 40.7714 58.7773C40.9546 58.6072 41.0911 58.3927 41.1676 58.1546L43.4604 51.0084L52.2785 51.8686C52.5735 51.8987 52.8707 51.8381 53.1304 51.695C53.3901 51.5518 53.6 51.333 53.7321 51.0675C53.8642 50.802 53.9123 50.5026 53.8699 50.2091C53.8275 49.9156 53.6966 49.642 53.4947 49.4248C53.4947 49.4248 48.9693 44.47 46.1748 39.6298C45.5269 38.5077 44.9165 37.2677 44.3348 36.0211Z" fill="#008244"/>
</svg>
