<svg width="24" height="24" viewBox="0 0 24 24" fill="none" xmlns="http://www.w3.org/2000/svg">
<path d="M22.826 18.1202H21.074C20.762 18.1202 20.498 18.3842 20.498 18.6962C20.498 19.0082 20.762 19.2722 21.074 19.2722H22.826C23.138 19.2722 23.402 19.0082 23.402 18.6962C23.402 18.3842 23.138 18.1202 22.826 18.1202Z" fill="black"/>
<path d="M20.8574 16.9921L22.5134 16.3921C22.8254 16.2721 22.9694 15.9601 22.8494 15.6481C22.7294 15.3361 22.4174 15.1921 22.1054 15.3121L20.4494 15.9121C20.1374 16.0321 19.9934 16.3441 20.1134 16.6561C20.2094 16.8961 20.4254 17.0401 20.6654 17.0401C20.7374 17.0401 20.8094 17.0161 20.8574 16.9921Z" fill="black"/>
<path d="M21.3133 12.9842C21.0973 12.7442 20.7373 12.6962 20.4973 12.9122L19.1533 14.0402C18.9133 14.2562 18.8653 14.6162 19.0813 14.8562C19.2013 15.0002 19.3693 15.0722 19.5373 15.0722C19.6573 15.0722 19.8013 15.0242 19.9213 14.9282L21.2653 13.8002C21.4813 13.5842 21.5293 13.2242 21.3133 12.9842Z" fill="black"/>
<path d="M14.5457 14.9281L14.3057 14.8561V16.8241H16.3697V14.9761H14.9297C14.8337 15.0001 14.6897 14.9761 14.5457 14.9281Z" fill="black"/>
<path d="M17.5453 13.4881C17.5453 13.0321 17.1853 12.6721 16.7293 12.6721H14.9293C14.4733 12.6721 14.1133 13.0321 14.1133 13.4881C14.1133 13.9441 14.4733 14.3041 14.9293 14.3041H16.7293C17.1853 14.3041 17.5453 13.9441 17.5453 13.4881Z" fill="black"/>
<path d="M17.0657 7.36815C17.5217 7.36815 17.8817 7.00814 17.8817 6.55214C17.8817 6.09614 17.5217 5.73615 17.0657 5.73615H15.5537L15.5777 6.00015C15.5777 6.02415 15.5777 6.04815 15.5777 6.09615L15.5537 7.34415H17.0657V7.36815Z" fill="black"/>
<path d="M18.2652 8.85616C18.2652 8.40016 17.9052 8.04016 17.4492 8.04016H15.5292L15.5052 8.80816C15.5052 9.00016 15.4572 9.21616 15.3612 9.40816L15.2412 9.67216H17.4252C17.9052 9.67216 18.2652 9.31216 18.2652 8.85616Z" fill="black"/>
<path d="M13.6811 14.3281L13.5851 14.1121C13.4891 13.9201 13.4411 13.7041 13.4411 13.4881C13.4411 13.1761 13.5371 12.8641 13.7291 12.6001L13.8251 12.4561L13.6811 12.3601C13.2971 12.0721 13.1051 11.6401 13.1051 11.1841C13.1051 10.8961 13.2011 10.6081 13.3691 10.3441L13.4651 10.1761L13.2971 10.0801C13.1531 10.0081 13.0331 9.91214 12.9371 9.81614C12.7211 9.57614 12.5771 9.28814 12.5291 8.97614L12.4811 8.61614L12.2171 8.88014C11.3051 9.76814 10.1291 9.98414 9.40908 9.91214C9.24108 9.88814 9.09708 9.74414 9.09708 9.57614V9.52814C9.12108 9.33614 9.28908 9.19214 9.48108 9.21614C9.57708 9.21614 11.4971 9.38414 12.4331 7.39214L12.5291 7.17614L11.6891 7.05614C11.4971 7.03214 11.3771 6.84014 11.4011 6.67214C11.4251 6.48014 11.6171 6.36014 11.8091 6.38414L13.0091 6.57614C13.1771 6.60014 13.3211 6.76814 13.2971 6.93614L13.2251 8.80814C13.2251 9.02414 13.2971 9.24014 13.4411 9.38414C13.5851 9.55214 13.8011 9.62414 14.0171 9.62414C14.4491 9.62414 14.8091 9.26414 14.8091 8.85614L14.8811 6.09614C14.8811 5.35214 14.3291 4.70414 13.6091 4.60814L11.3531 4.32014C10.3931 4.20014 9.43308 4.48814 8.68908 5.13614L6.26508 7.27214C6.19308 7.32014 6.12108 7.36814 6.02508 7.36814H4.70508V12.6241H6.14508C6.26508 12.6241 6.38508 12.6961 6.43308 12.7921L6.74508 13.2721C7.29708 14.1601 8.25708 14.6881 9.28908 14.7121C9.38508 14.7121 9.50508 14.7121 9.60108 14.7121C10.6571 14.7121 12.0731 14.6641 13.4651 14.4241L13.6811 14.3281Z" fill="black"/>
<path d="M17.9294 17.5201H12.7694C12.3614 17.5201 12.0254 17.8561 12.0254 18.2641V19.7041H18.6974V18.2641C18.6974 17.8561 18.3614 17.5201 17.9294 17.5201Z" fill="black"/>
<path d="M3.64956 6.21613H0.961563C0.769562 6.21613 0.601562 6.38413 0.601562 6.57613V13.3201C0.601562 13.5121 0.769562 13.6801 0.961563 13.6801H3.64956C3.84156 13.6801 4.00956 13.5121 4.00956 13.3201V6.57613C4.00956 6.38413 3.84156 6.21613 3.64956 6.21613ZM2.30556 12.6001C1.96956 12.6001 1.68156 12.3361 1.68156 12.0001C1.68156 11.6641 1.94556 11.3761 2.30556 11.3761C2.64156 11.3761 2.92956 11.6641 2.92956 12.0001C2.92956 12.3361 2.64156 12.6001 2.30556 12.6001Z" fill="black"/>
<path d="M17.8818 11.1842C17.8818 10.7282 17.5218 10.3682 17.0658 10.3682H14.6178C14.1618 10.3682 13.8018 10.7282 13.8018 11.1842C13.8018 11.6402 14.1618 12.0002 14.6178 12.0002H17.0658C17.5218 11.9762 17.8818 11.6162 17.8818 11.1842Z" fill="black"/>
</svg>
