<svg width="78" height="60" viewBox="0 0 78 60" fill="none" xmlns="http://www.w3.org/2000/svg">
<path d="M33.4313 33.4279C33.0971 33.3165 32.7628 33.2051 32.3171 33.2051C30.7571 33.2051 29.4199 34.5422 29.4199 36.1022C29.4199 37.6622 30.7571 38.9994 32.3171 38.9994C33.8771 38.9994 35.2142 37.6622 35.2142 36.1022C35.2142 35.7679 35.1028 35.3222 34.9913 34.9879L33.0971 36.8822C32.8742 37.1051 32.5399 37.2165 32.3171 37.2165C31.9828 37.2165 31.7599 37.1051 31.5371 36.8822C31.0913 36.4365 31.0913 35.7679 31.5371 35.3222L33.4313 33.4279Z" fill="#008244"/>
<path d="M36.5431 33.4282C37.1002 34.2082 37.3231 35.0997 37.3231 36.2139C37.3231 38.9997 34.9831 41.3397 32.1973 41.3397C29.4116 41.3397 27.0716 38.9997 27.0716 36.2139C27.0716 33.4282 29.4116 31.0882 32.1973 31.0882C33.2002 31.0882 34.2031 31.4225 34.9831 31.8682L39.1059 27.7454C37.2116 26.1854 34.8716 25.2939 32.1973 25.2939C26.1802 25.2939 21.2773 30.1968 21.2773 36.2139C21.2773 42.2311 26.1802 47.134 32.1973 47.134C38.2145 47.134 43.1173 42.2311 43.1173 36.2139C43.1173 33.6511 42.2259 31.1997 40.6659 29.3054L36.5431 33.4282Z" fill="#008244"/>
<path d="M45.4645 36.1026C45.4645 43.3454 39.5588 49.2511 32.316 49.2511C25.0731 49.2511 19.1674 43.3454 19.1674 36.1026C19.1674 28.8597 25.0731 22.954 32.316 22.954C35.5474 22.954 38.556 24.0683 40.7845 26.074L46.4674 20.3911C42.6788 17.0483 37.776 14.9311 32.316 14.9311C20.616 14.9311 11.1445 24.4025 11.1445 36.1026C11.1445 47.8026 20.616 57.274 32.316 57.274C44.016 57.274 53.4874 47.8026 53.4874 36.1026C53.4874 30.6425 51.4817 25.7397 48.0274 21.9511L42.3445 27.634C44.2388 29.974 45.4645 32.8711 45.4645 36.1026ZM66.7474 8.80255C66.636 8.35683 66.1903 8.13398 65.7445 8.13398L60.396 8.02255L60.2845 2.67398C60.2845 2.22826 59.9502 1.78255 59.616 1.67112C59.1702 1.44826 58.7245 1.55969 58.3903 1.89398L50.9245 9.35969C50.7017 9.58255 50.5903 9.91683 50.5903 10.1397L50.8131 16.0454L46.4674 20.3911C47.0245 20.9483 47.5817 21.394 48.0274 21.9511L52.3731 17.6054L58.2788 17.8283C58.6131 17.8283 58.836 17.7168 59.0588 17.494L66.5245 10.0283C66.8588 9.69398 66.9703 9.24826 66.7474 8.80255Z" fill="#008244"/>
</svg>
