<svg width="18" height="18" viewBox="0 0 18 18" fill="none" xmlns="http://www.w3.org/2000/svg">
<path d="M17 17.8056C16.8686 17.8059 16.7385 17.7805 16.6172 17.7307C16.4958 17.681 16.3856 17.6079 16.293 17.5158L12.893 14.1574C11.4975 15.2411 9.7742 15.8292 8 15.8272C6.41775 15.8272 4.87103 15.3631 3.55544 14.4936C2.23985 13.624 1.21447 12.388 0.608969 10.942C0.00346935 9.49602 -0.154961 7.90479 0.153719 6.36973C0.462399 4.83464 1.22433 3.42458 2.34315 2.31784C3.46197 1.21111 4.88743 0.457405 6.43928 0.152059C7.9911 -0.153287 9.5997 0.00343188 11.0615 0.602392C12.5233 1.20135 13.7727 2.21566 14.6518 3.51704C15.5308 4.81842 16 6.34844 16 7.9136C16.0036 9.67101 15.409 11.3784 14.312 12.7607L17.707 16.124C17.8444 16.2626 17.9376 16.4383 17.9748 16.6289C18.012 16.8197 17.9916 17.017 17.9162 17.1963C17.8408 17.3756 17.7137 17.529 17.5508 17.6373C17.3879 17.7458 17.1963 17.8042 17 17.8056ZM8 1.9784C6.81332 1.9784 5.65328 2.3265 4.66658 2.97867C3.67989 3.63083 2.91085 4.55779 2.45673 5.6423C2.0026 6.72682 1.88378 7.92023 2.11529 9.07146C2.3468 10.2228 2.91825 11.2803 3.75736 12.1104C4.59648 12.9405 5.66558 13.5057 6.82946 13.7347C7.9933 13.9637 9.1997 13.8462 10.2961 13.397C11.3925 12.9478 12.3295 12.187 12.9888 11.211C13.6481 10.235 14 9.08748 14 7.9136C13.9982 6.34005 13.3654 4.83148 12.2406 3.71881C11.1158 2.60614 9.5907 1.98024 8 1.9784Z" fill="black" fill-opacity="0.5"/>
</svg>
