<svg width="60" height="60" viewBox="0 0 60 60" fill="none" xmlns="http://www.w3.org/2000/svg">
<path d="M7.37164 25.1385L3.60417 24.7492C2.97034 24.6765 2.40356 25.1441 2.33821 25.7785C2.27285 26.4123 2.73371 26.9791 3.36754 27.0445L7.13388 27.4338C7.74496 27.5017 8.33306 27.0556 8.40041 26.405C8.46633 25.7712 8.00547 25.2038 7.37164 25.1385ZM9.8461 17.1613L6.42287 15.4316C5.85384 15.1443 5.16028 15.3725 4.87295 15.9415C4.58562 16.51 4.81379 17.2041 5.38283 17.4914L8.80606 19.2211C9.36918 19.5064 10.0672 19.2839 10.356 18.7112C10.6433 18.1427 10.4151 17.4486 9.8461 17.1613ZM14.4485 12.9391C14.9009 12.4907 14.9043 11.7599 14.4553 11.3075L11.7459 8.57278C11.2991 8.12093 10.5678 8.11586 10.1143 8.56489C9.66131 9.0128 9.65793 9.74353 10.1064 10.1965L12.8169 12.9324C13.2647 13.3846 13.996 13.3883 14.4485 12.9391ZM18.5146 8.59588C18.8042 9.16544 19.5016 9.38869 20.0662 9.10069C20.6341 8.81166 20.86 8.11699 20.571 7.54907L18.8391 4.14388C18.5512 3.57653 17.8588 3.34948 17.2875 3.63907C16.7196 3.92753 16.4937 4.62221 16.7827 5.19068L18.5146 8.59588ZM26.5893 7.18906C27.2186 7.08878 27.6473 6.49721 27.5476 5.86789L26.9527 2.1269C26.8524 1.49814 26.2659 1.0694 25.6315 1.16855C25.0022 1.26883 24.5734 1.86041 24.6731 2.48972L25.2681 6.23071C25.3683 6.85833 25.9563 7.28779 26.5893 7.18906ZM33.4109 7.18906C34.0442 7.28783 34.6319 6.85798 34.7321 6.23071L35.3271 2.48972C35.4268 1.86041 34.998 1.26883 34.3687 1.16855C33.7355 1.07108 33.1478 1.4987 33.0475 2.1269L32.4526 5.86789C32.3529 6.49721 32.7816 7.08878 33.4109 7.18906ZM39.934 9.10069C40.4987 9.38873 41.1961 9.16534 41.4856 8.59588L43.2181 5.19012C43.5065 4.62164 43.28 3.92753 42.7121 3.63851C42.1448 3.35117 41.4501 3.57653 41.1605 4.14444L39.4292 7.54907C39.1402 8.11699 39.3661 8.81166 39.934 9.10069ZM49.8865 8.5649C49.4341 8.11587 48.7039 8.11812 48.2549 8.57279L45.5449 11.3081C45.0964 11.7605 45.0998 12.4912 45.5528 12.9397C46.0055 13.3878 46.7356 13.3851 47.1844 12.9318L49.8944 10.1965C50.3428 9.74409 50.3395 9.01336 49.8865 8.5649ZM55.1278 15.9404C54.8399 15.3719 54.1447 15.1437 53.5773 15.4311L50.1541 17.1613C49.5851 17.4486 49.3569 18.1427 49.6442 18.7112C49.9331 19.2841 50.6312 19.5063 51.1941 19.2211L54.6185 17.4909C55.187 17.2035 55.4151 16.5094 55.1278 15.9404ZM56.396 24.7492L52.6285 25.1385C51.9947 25.2038 51.5339 25.7712 51.5998 26.405C51.6671 27.0555 52.2552 27.5017 52.8663 27.4338L56.6326 27.0445C57.2665 26.9791 57.7273 26.4123 57.662 25.7785C57.5966 25.1447 57.0282 24.6787 56.396 24.7492ZM31.4257 35.9416C31.5526 33.5993 32.2679 31.3031 33.4795 29.2724H26.5218C27.7333 31.3031 28.4372 33.5993 28.5756 35.9416L29.2564 46.5916H30.7449L31.4257 35.9416Z" fill="#008244"/>
<path d="M31.0189 10.3724C21.0959 9.80701 12.8574 17.6878 12.8574 27.4724C12.8574 31.2455 14.0574 34.8224 16.319 37.8224C18.3266 40.4647 19.8844 43.4186 20.969 46.5916H26.9344L26.2767 36.0801C26.1497 33.9685 25.4805 31.9147 24.3382 30.1262C23.9228 29.4916 23.8997 28.6839 24.2574 28.0147C24.6151 27.3685 25.2959 26.9647 26.0343 26.9647H33.9612C34.6997 26.9647 35.3805 27.3685 35.7382 28.0147C36.0959 28.6724 36.0728 29.4916 35.6574 30.1262C34.5151 31.9147 33.8459 33.9686 33.719 36.0801L33.0613 46.5916H39.1766C40.3074 43.407 41.9228 40.3032 43.9997 37.3724C46.3074 34.0955 47.4036 30.0801 47.0805 26.0416C46.3882 17.5955 39.4767 10.857 31.0189 10.3724ZM22.7459 56.157C22.8151 57.6685 24.0382 58.8455 25.5152 58.8455H34.4689C35.9574 58.8455 37.169 57.6916 37.2382 56.2262C37.3554 53.7729 37.7596 51.3197 38.4365 48.9039H21.6632C22.2719 51.2349 22.6405 53.6624 22.7459 56.157Z" fill="#008244"/>
</svg>
